<svg width="1500" height="400" viewBox="0 0 1500 400" fill="none" xmlns="http://www.w3.org/2000/svg">
<g clip-path="url(#clip0_19_465)">
<path d="M243.255 333.756C241.298 335.694 239.347 337.579 237.408 339.412C227.756 348.485 217.487 356.854 206.68 364.462C199.857 369.253 193.547 373.257 187.94 376.524C180.377 380.931 174.152 384.022 169.942 385.977C166.148 387.736 164.001 388.58 163.928 388.58H163.91L163.853 388.559C163.122 388.269 155.674 385.351 144.341 379.043C133.613 373.054 123.305 366.317 113.489 358.882C105.674 352.989 98.1717 346.675 91.0139 339.973C89.0543 338.137 87.0969 336.253 85.1415 334.318C84.3952 333.586 83.6599 332.84 82.915 332.083L82.5146 331.676C74.2748 323.281 66.5798 314.352 59.4788 304.94C51.0964 293.88 43.5707 282.172 36.969 269.924C35.8379 267.843 34.7273 265.725 33.6374 263.549C27.7741 251.975 22.7189 239.993 18.5093 227.693C16.3662 221.462 14.4041 215.016 12.623 208.356C9.71191 197.533 7.39893 186.548 5.69517 175.461C4.90097 170.488 4.23061 165.39 3.66648 160.201C2.0705 145.529 1.36423 130.772 1.55206 116.012L1.73076 107.524C2.03583 96.902 2.80577 85.9079 4.0412 74.5413C5.30438 62.4743 7.12538 49.9847 9.50453 37.0728C9.50453 37.0728 11.1963 37.3247 14.3523 37.577C23.171 38.2248 32.02 38.3265 40.8506 37.8817H40.868C54.1142 37.2288 67.298 35.621 80.3212 33.07C82.3325 32.6919 84.3782 32.2612 86.4582 31.8132C101.186 28.6227 115.659 24.3129 129.756 18.9197C132.375 17.9042 135.003 16.8641 137.664 15.7682C146.232 12.2139 155.013 8.12044 163.932 3.39648H163.948C169.995 6.59254 175.971 9.51063 181.878 12.1507C191.628 16.5424 201.596 20.4078 211.742 23.7309C213.4 24.2889 215.038 24.8107 216.658 25.2965C228.852 29.0754 241.273 32.0499 253.841 34.2013C267.062 36.4963 280.434 37.7978 293.845 38.0951C309.284 38.3754 318.349 37.0446 318.349 37.0446C319.934 45.6801 321.273 54.1577 322.367 62.3974C323.616 71.8073 324.554 80.9645 325.187 89.8684C325.427 92.9741 325.614 96.0453 325.771 99.099" stroke="white" stroke-width="0.144855"/>
<path d="M167.038 164.682C170.888 164.682 174.643 165.782 177.85 167.838L178.485 168.261C181.614 170.443 184.014 173.464 185.4 176.947L185.662 177.648C186.911 181.192 187.072 185.009 186.136 188.63L185.933 189.35C184.774 193.184 182.423 196.573 179.199 199.044L178.817 199.334L178.894 199.811L183.178 227.273H150.901L155.185 199.811L155.26 199.334L154.88 199.044C151.856 196.727 149.597 193.603 148.375 190.063L148.144 189.35C147.058 185.761 147.077 181.939 148.18 178.365L148.415 177.648C149.664 174.108 151.946 171.001 154.976 168.709L155.592 168.261C158.93 165.933 162.933 164.682 167.038 164.682ZM167.038 171.175C163.797 171.179 160.673 172.361 158.273 174.487L157.805 174.925C155.35 177.327 153.961 180.589 153.958 183.997L153.985 184.84C154.098 186.519 154.552 188.157 155.315 189.661L155.724 190.401C156.881 192.342 158.539 193.942 160.529 195.047L162.447 196.14L158.741 219.935L158.596 220.864H175.483L175.339 219.935L171.629 196.14L173.548 195.043C175.289 194.077 176.777 192.733 177.897 191.112L178.354 190.401C179.508 188.46 180.118 186.248 180.118 183.997L180.103 183.36C179.948 180.397 178.748 177.578 176.717 175.385L176.272 174.925C173.97 172.674 170.907 171.351 167.684 171.191L167.038 171.175Z" fill="#33A555" stroke="white" stroke-width="0.0603561"/>
<path fill-rule="evenodd" clip-rule="evenodd" d="M3.66648 160.201C2.0705 145.529 1.36423 130.772 1.55206 116.012L1.73076 107.524C2.03583 96.902 2.80578 85.9079 4.0412 74.5413C5.30438 62.4743 7.12538 49.9847 9.50453 37.0728C9.50453 37.0728 11.1963 37.3247 14.3523 37.577C23.171 38.2248 32.02 38.3265 40.8506 37.8817H40.8679C54.1142 37.2288 67.298 35.621 80.3212 33.07C82.3325 32.6919 84.3782 32.2612 86.4582 31.8132C101.186 28.6227 115.659 24.3129 129.756 18.9197C132.375 17.9042 135.003 16.8641 137.664 15.7682C146.232 12.2139 155.013 8.12044 163.932 3.39648H163.948C169.995 6.59254 175.971 9.51063 181.877 12.1507C191.628 16.5424 201.596 20.4078 211.742 23.7309C213.4 24.2889 215.038 24.8107 216.658 25.2965C228.852 29.0754 241.273 32.0499 253.841 34.2013C267.062 36.4963 280.434 37.7978 293.845 38.0951C309.284 38.3754 318.349 37.0446 318.349 37.0446C319.934 45.6801 321.273 54.1577 322.367 62.3974C323.616 71.8073 324.554 80.9645 325.187 89.8684C325.426 92.9741 325.614 96.0453 325.771 99.099L317.363 94.1614L306.797 112.798L297.211 107.159L295.748 106.298L291.764 113.337L288.733 118.659L290.233 119.538L300.869 125.779L303.904 120.41L307.236 114.538L327.45 126.756L326.218 128.761L324.223 132.264V132.281L314.368 149.629L315.254 150.148L324.649 155.679C324.065 161.998 323.289 168.174 322.373 174.172L322.363 174.235C322.345 174.359 322.325 174.479 322.31 174.598C322.284 174.768 322.26 174.936 322.232 175.104L306.438 165.825L265.212 141.834L253.396 166.258L271.784 177.069L267.289 185.004L265.014 189.023L254.632 182.919L253.863 182.446L246.299 195.824L247.094 196.29L259.417 203.528L265.799 192.268L283.64 202.756L287.144 196.576L287.958 195.176L291.591 188.73L291.61 188.711L293.053 189.571L316.518 203.39C315.88 205.923 315.231 208.375 314.545 210.824C314.427 211.303 314.295 211.781 314.16 212.26L314.138 212.332C313.239 215.543 312.285 218.681 311.298 221.789L293.467 211.329L283.926 228.138L289.773 231.585L285.719 238.73L284.415 241.049L269.177 232.074L237.465 213.421L224.777 206.212C226.141 195.956 224.82 185.492 220.916 175.888C216.558 165.17 209.176 156.011 199.706 149.565C190.236 143.12 179.1 139.681 167.71 139.681C152.438 139.681 137.789 145.861 126.988 156.859C116.188 167.86 110.12 182.778 110.12 198.334C110.12 209.935 113.498 221.276 119.826 230.92C126.153 240.567 135.148 248.084 145.672 252.524C156.194 256.962 167.773 258.125 178.947 255.862C190.116 253.599 200.377 248.01 208.433 239.809C210.837 237.36 213.011 234.712 214.938 231.9L224.111 237.21L255.814 255.846L275.821 267.61L272.278 273.84L270.144 277.609L262.212 272.938L262.197 272.96L256.152 283.639L275.582 295.064C271.594 300.861 267.468 306.357 263.274 311.547C262.868 312.083 262.429 312.622 261.985 313.161L233.144 296.21L206.738 280.684C206.738 280.684 193.293 304.395 193.255 304.395L211.076 314.901L207.162 321.814L205.839 324.149L194.805 317.668L187.387 330.687L200.238 338.246L206.567 327.077L213.462 331.133L224.585 337.672L227.036 333.345L230.914 326.502L243.255 333.756C241.298 335.694 239.347 337.579 237.408 339.412C227.756 348.485 217.487 356.854 206.68 364.462C199.857 369.253 193.547 373.257 187.94 376.524C180.377 380.931 174.152 384.022 169.942 385.977C166.148 387.736 164.001 388.58 163.928 388.58H163.91L163.853 388.559L163.824 388.545C162.945 388.198 155.541 385.278 144.341 379.043C133.613 373.054 123.305 366.317 113.489 358.882C105.674 352.989 98.1716 346.675 91.0139 339.973C89.0543 338.136 87.0969 336.253 85.1415 334.318C84.3952 333.586 83.6599 332.84 82.915 332.083L82.5146 331.676C74.2748 323.281 66.5798 314.352 59.4788 304.94C51.0964 293.88 43.5707 282.172 36.969 269.924C35.8379 267.843 34.7274 265.725 33.6374 263.549C27.7741 251.975 22.7189 239.993 18.5093 227.692C16.3662 221.462 14.404 215.016 12.623 208.356C9.71191 197.532 7.39893 186.548 5.69517 175.461C4.90097 170.488 4.23061 165.39 3.66648 160.201ZM349.694 124.408L336.559 116.685L328.976 130.062L342.112 137.785L349.694 124.408ZM313.662 174.717L300.525 166.993L292.943 180.37L306.078 188.092L313.662 174.717ZM341.923 151.586L352.172 157.612L346.256 168.051L336.007 162.025L341.923 151.586ZM322.505 237.639L306.577 228.274L297.38 244.499L313.309 253.866L322.505 237.639ZM332.814 217.386L344.752 224.405L337.86 236.563L325.925 229.544L332.814 217.386ZM285.468 165.609L273.53 158.591L266.641 170.747L278.575 177.767L285.468 165.609ZM289.855 252.633L300.262 258.751L294.251 269.35L283.844 263.232L289.855 252.633ZM263.805 238.246L229.273 217.936L223.262 228.536L257.798 248.844L263.805 238.246ZM218.273 296.558L252.805 316.862L246.798 327.461L212.262 307.156L218.273 296.558ZM300.262 284.504L284.589 275.292L275.541 291.251L291.214 300.467L300.262 284.504ZM293.946 305.599L309.615 314.811L300.566 330.773L284.897 321.559L293.946 305.599ZM337.341 264.961L324.936 257.666L317.776 270.3L330.18 277.596L337.341 264.961ZM277.968 333.195L290.372 340.486L283.212 353.12L270.807 345.828L277.968 333.195ZM276.137 321.574L265.519 315.331L259.389 326.146L270.007 332.388L276.137 321.574ZM243.325 334.346L252.776 339.903L247.318 349.528L237.869 343.969L243.325 334.346ZM317.101 280.333L309.55 275.898L305.192 283.585L312.741 288.022L317.101 280.333ZM324.469 179.625L339.807 188.644L330.951 204.27L315.613 195.247L324.469 179.625Z" fill="url(#paint0_linear_19_465)"/>
<path d="M243.255 333.756C241.298 335.694 239.347 337.579 237.408 339.412C227.756 348.485 217.487 356.854 206.68 364.462C199.857 369.253 193.547 373.257 187.94 376.524C180.377 380.931 174.152 384.022 169.942 385.977C166.148 387.736 164.001 388.58 163.928 388.58H163.91L163.853 388.559C163.122 388.269 155.674 385.351 144.341 379.043C133.613 373.054 123.305 366.317 113.489 358.882C105.674 352.989 98.1717 346.675 91.0139 339.973C89.0543 338.137 87.0969 336.253 85.1415 334.318C84.3952 333.586 83.6599 332.84 82.915 332.083L82.5146 331.676C74.2748 323.281 66.5798 314.352 59.4788 304.94C51.0964 293.88 43.5707 282.172 36.969 269.924C35.8379 267.843 34.7273 265.725 33.6374 263.549C27.7741 251.975 22.7189 239.993 18.5093 227.693C16.3662 221.462 14.4041 215.016 12.623 208.356C9.71191 197.533 7.39893 186.548 5.69517 175.461C4.90097 170.488 4.23061 165.39 3.66648 160.201C2.0705 145.529 1.36423 130.772 1.55206 116.012L1.73076 107.524C2.03583 96.902 2.80577 85.9079 4.0412 74.5413C5.30438 62.4743 7.12538 49.9847 9.50453 37.0728C9.50453 37.0728 11.1963 37.3247 14.3523 37.577C23.171 38.2248 32.02 38.3265 40.8506 37.8817H40.868C54.1142 37.2288 67.298 35.621 80.3212 33.07C82.3325 32.6919 84.3782 32.2612 86.4582 31.8132C101.186 28.6227 115.659 24.3129 129.756 18.9197C132.375 17.9042 135.003 16.8641 137.664 15.7682C146.232 12.2139 155.013 8.12044 163.932 3.39648H163.948C169.995 6.59254 175.971 9.51063 181.878 12.1507C191.628 16.5424 201.596 20.4078 211.742 23.7309C213.4 24.2889 215.038 24.8107 216.658 25.2965C228.852 29.0754 241.273 32.0499 253.841 34.2013C267.062 36.4963 280.434 37.7978 293.845 38.0951C309.284 38.3754 318.349 37.0446 318.349 37.0446C319.934 45.6801 321.273 54.1577 322.367 62.3974C323.616 71.8073 324.554 80.9645 325.187 89.8684C325.427 92.9741 325.614 96.0453 325.771 99.099" stroke="white" stroke-width="0.144855"/>
<path d="M167.563 335.042C169.006 335.315 170.102 336.585 170.103 338.11C170.102 339.834 168.703 341.235 166.983 341.235C165.262 341.235 163.863 339.834 163.862 338.11C163.863 336.585 164.959 335.315 166.403 335.042V258.499H167.563V335.042ZM249.251 322.838H248.091V314.873H249.251V322.838ZM229.962 316.512H228.801V303.63H229.962V316.512ZM266.221 307.736H265.061V289.643H266.221V307.736ZM229.962 293.093H228.801V240.997H229.962V293.093ZM239.321 274.685C240.764 274.958 241.859 276.23 241.861 277.754C241.861 279.478 240.463 280.879 238.741 280.879C237.02 280.879 235.621 279.478 235.621 277.754C235.624 276.23 236.718 274.958 238.161 274.685V246.266H239.321V274.685ZM266.221 274.361H265.061V262.662H266.221V274.361ZM219.489 234.565C219.811 234.565 220.07 234.824 220.07 235.147V251.391C221.513 251.663 222.609 252.943 222.609 254.469C222.605 256.19 221.208 257.584 219.489 257.584C217.77 257.584 216.372 256.19 216.369 254.469C216.369 252.943 217.464 251.663 218.909 251.391V235.147C218.909 234.824 219.166 234.565 219.489 234.565ZM93.2459 93.1405L93.0747 93.3119L72.7858 113.625V246.122C74.2282 246.395 75.3234 247.667 75.3254 249.191C75.3238 250.914 73.9259 252.306 72.2055 252.306C70.4851 252.306 69.0872 250.914 69.0855 249.191C69.0877 247.667 70.1828 246.395 71.6253 246.122V113.139L92.0759 92.6545V31.4312H93.2459V93.1405ZM25.8631 98.9234L26.0439 99.0951V229.917C27.4843 230.192 28.574 231.461 28.574 232.984C28.5713 234.706 27.1739 236.1 25.4541 236.1C23.7357 236.098 22.3465 234.705 22.3438 232.984C22.3438 231.46 23.4316 230.19 24.8739 229.917V99.5907L3.42442 78.6873L4.24246 77.8489L25.8631 98.9234ZM15.4856 73.9236L36.5261 94.9983V227.392C37.9683 227.665 39.0643 228.936 39.0658 230.459C39.0646 232.182 37.6658 233.574 35.9459 233.575C34.2252 233.575 32.8271 232.183 32.826 230.459C32.8274 228.938 33.917 227.667 35.3561 227.392V95.4746L14.3251 74.4095V37.8718H15.4856V73.9236ZM83.9052 86.6999L62.2749 108.365V201.439L52.9247 210.804V223.295C54.3683 223.567 55.4635 224.838 55.4645 226.362C55.4638 228.086 54.0655 229.487 52.3445 229.487C50.6235 229.487 49.2252 228.086 49.2246 226.362C49.2254 224.838 50.3206 223.567 51.7642 223.295V210.319L61.1145 200.953V107.88L82.7352 86.2235V33.1938H83.9052V86.6999ZM269.731 195.341L270.15 195.751L266.811 199.095V228.707H265.641V198.609L265.812 198.438L269.322 194.931L269.731 195.341ZM278.482 200.61L278.891 201.02L276.723 203.192V218.789C278.165 219.06 279.261 220.332 279.262 221.856C279.26 223.579 277.862 224.981 276.142 224.981C274.422 224.981 273.023 223.579 273.022 221.856C273.023 220.332 274.118 219.06 275.562 218.789V202.706L278.064 200.2L278.482 200.61ZM299.541 194.169L299.95 194.579L287.262 207.288V222.266H286.101V206.802L299.123 193.76L299.541 194.169ZM308.882 199.439L309.301 199.847L297.192 211.976V212.9H296.032V211.49L308.473 199.029L308.882 199.439ZM307.693 185.395H306.533V171.342H307.693V185.395ZM297.192 181.87H296.032V174.847H297.192V181.87ZM266.25 56.9838V39.0436H267.42V93.8169L267.125 93.9884L229.962 115.473V174.123C231.405 174.396 232.5 175.667 232.501 177.192C232.5 178.915 231.102 180.317 229.381 180.317C227.66 180.317 226.262 178.915 226.261 177.192C226.262 175.667 227.357 174.396 228.801 174.123V114.805L229.086 114.635L266.25 93.1405V58.6321L243.012 35.3565L243.83 34.5372L266.25 56.9838ZM218.281 167.826H217.12V28.5064H218.281V167.826ZM307.693 165.482H306.533V115.73H307.693V165.482ZM297.192 159.633H296.032V123.923H297.192V159.633ZM209.53 156.117H208.37V25.5814H209.53V156.117ZM102.606 98.4093L102.435 98.581L82.1455 118.893V147.78C83.5886 148.052 84.6835 149.324 84.6852 150.848C84.6852 152.572 83.2866 153.973 81.5652 153.973C79.8438 153.973 78.4453 152.572 78.4453 150.848C78.4471 149.324 79.542 148.052 80.985 147.78V118.407L101.436 97.9234V29.6782H102.606V98.4093ZM286.653 153.192H285.492V39.0436H286.653V153.192ZM3.05346 92.483L15.3334 104.183L15.5141 104.355V146.027C16.9541 146.302 18.0433 147.573 18.0443 149.095C18.043 150.818 16.645 152.22 14.9244 152.22C13.2049 152.219 11.8153 150.817 11.814 149.095C11.8151 147.571 12.9019 146.3 14.3442 146.027V104.849L2.25445 93.3215L1.82642 92.9214L2.63494 92.0734L3.05346 92.483ZM132.968 31.6789L132.797 31.8505L112.508 52.1629V128.354L133.967 149.847L133.139 150.677L111.347 128.849V51.6771L131.798 31.1931V19.1409H132.968V31.6789ZM199.599 147.933H198.438V22.0753H199.599V147.933ZM144.088 24.1618L169.808 49.924V134.804L174.307 139.32L173.479 140.149L168.81 135.461L168.638 135.29V50.4099L142.927 24.6572V14.4628H144.088V24.1618ZM317.662 130.574C319.105 130.846 320.2 132.118 320.201 133.641C320.199 135.364 318.802 136.757 317.082 136.757C315.361 136.757 313.964 135.364 313.962 133.641C313.964 132.118 315.058 130.846 316.501 130.574V120.999H317.662V130.574ZM190.239 117.35C191.684 117.622 192.779 118.892 192.779 120.417C192.777 122.14 191.38 123.543 189.66 123.543C187.939 123.543 186.542 122.14 186.54 120.417C186.54 118.892 187.635 117.622 189.079 117.35V16.8067H190.239V117.35ZM307.693 111.634H306.533V38.4625H307.693V111.634ZM297.192 105.774H296.032V39.0436H297.192V105.774ZM317.662 94.0646H316.501V37.8718H317.662V94.0646ZM231.141 39.3867L249.851 58.1271V70.3127L249.68 70.4842L233.129 87.0429C233.472 87.5446 233.681 88.1513 233.681 88.8055C233.68 90.5284 232.281 91.9305 230.561 91.9305C228.841 91.9305 227.442 90.5284 227.441 88.8055C227.441 87.0813 228.84 85.6805 230.561 85.6805C231.21 85.6805 231.811 85.8834 232.311 86.2235L248.681 69.8268V58.6035L231.141 41.0349V59.9754C232.584 60.2473 233.679 61.5194 233.681 63.0433C233.681 64.7675 232.282 66.1683 230.561 66.1683C228.84 66.1683 227.441 64.7675 227.441 63.0433C227.443 61.5194 228.538 60.2473 229.98 59.9754V32.022H231.141V39.3867ZM179.738 83.975C181.182 84.247 182.276 85.5185 182.278 87.0429C182.278 88.767 180.88 90.1679 179.159 90.1679C177.436 90.1679 176.039 88.767 176.038 87.0429C176.04 85.5185 177.135 84.247 178.578 83.975V12.1191H179.738V83.975ZM72.177 71.1035C73.6207 71.376 74.7165 72.6462 74.7167 74.1713C74.7146 75.8939 73.3169 77.2963 71.5968 77.2963C69.8765 77.2963 68.4788 75.8939 68.4768 74.1713C68.477 72.6462 69.5728 71.376 71.0165 71.1035V35.5376H72.177V71.1035Z" fill="white"/>
<path d="M242.946 335.531C240.99 337.485 239.679 338.743 237.74 340.591C228.088 349.737 217.82 358.173 207.014 365.842C200.192 370.673 193.88 374.708 188.275 378.002C180.712 382.444 174.488 385.561 170.276 387.532C166.483 389.303 164.337 390.156 164.263 390.156H164.245L164.189 390.132C163.457 389.841 156.01 386.9 144.677 380.542C133.949 374.504 123.643 367.712 113.828 360.218C106.011 354.278 98.5102 347.913 91.3518 341.157C89.3932 339.305 87.4358 337.406 85.4798 335.455C84.7335 334.719 83.9981 333.967 83.2533 333.204L82.8536 332.792C74.6138 324.331 66.9189 315.329 59.8181 305.843C51.4368 294.693 43.9119 282.891 37.3098 270.545C36.179 268.447 35.0684 266.312 33.9783 264.118C28.1157 252.451 23.0606 240.372 18.851 227.973C16.7073 221.692 14.7459 215.196 12.9653 208.481C10.0538 197.571 7.74161 186.498 6.03708 175.322C5.24326 170.309 4.57314 165.169 4.00903 159.938C2.41325 145.148 1.70644 130.273 1.89401 115.395L2.07342 106.838C2.3779 96.131 3.14861 85.0485 4.38419 73.59C5.64696 61.4261 7.46704 48.836 9.84717 35.8201C9.84717 35.8201 11.5381 36.0742 14.6943 36.3285C23.5119 36.9815 32.3607 37.084 41.1919 36.6357H41.2083C54.4544 35.9774 67.638 34.3566 80.6597 31.7852C82.6715 31.404 84.7172 30.9699 86.7969 30.5183C101.525 27.3022 115.997 22.9576 130.092 17.5211C132.71 16.4974 135.339 15.4489 137.999 14.3442C146.569 10.7615 155.348 6.63497 164.268 1.87305H164.283C170.33 5.09486 176.305 8.03634 182.211 10.6976C191.962 15.1247 201.93 19.0212 212.076 22.3712C213.733 22.9334 215.371 23.4595 216.991 23.9492C229.184 27.7585 241.603 30.7569 254.172 32.9256C267.393 35.2391 280.765 36.5511 294.173 36.8508C309.613 37.1333 318.676 35.7918 318.676 35.7918C320.262 44.4967 321.602 53.0425 322.695 61.3484C323.944 70.8341 324.882 80.0649 325.515 89.0403C325.754 92.1717 325.94 95.2677 326.098 98.345" stroke="white" stroke-width="3.74607" stroke-linecap="round"/>
<path fill-rule="evenodd" clip-rule="evenodd" d="M467.425 31.9746C485.573 31.9746 499.412 40.7527 508.942 58.309C512.096 64.058 513.676 71.7234 513.676 81.3052V101.334H483.449V79.8216C483.449 71.4145 479.93 65.7272 472.887 62.7599C471.735 62.018 469.913 61.6472 467.425 61.6472H465.605C458.625 61.6472 453.648 65.9743 450.674 74.6289C450.432 75.9271 450.309 77.1635 450.309 78.338V122.105C450.309 127.298 446.909 131.503 440.112 134.715L439.384 135.829V136.57C440.051 137.374 442.722 139.355 447.395 142.505C449.339 144.856 450.309 147.451 450.309 150.294V186.273C450.309 193.319 454.315 198.512 462.327 201.85C463.661 202.096 464.754 202.221 465.605 202.221H467.789C473.919 202.221 478.654 198.882 481.993 192.207C482.962 190.165 483.449 187.818 483.449 185.158V158.454H513.676V183.675C513.676 196.533 510.399 206.917 503.844 214.833C494.071 226.701 482.054 232.635 467.789 232.635H467.425C449.278 232.635 435.439 223.734 425.909 205.931C422.997 200.366 421.54 193.074 421.54 184.046V150.294C421.54 145.968 418.261 142.381 411.706 139.538C411.706 139.167 411.343 138.795 410.613 138.425C410.613 137.558 413.286 134.962 418.625 130.635C420.569 128.535 421.54 125.69 421.54 122.105V80.9344C421.54 57.8143 432.586 42.1129 454.68 33.8291C458.746 32.8402 462.994 32.2217 467.425 31.9746ZM522.78 34.3854H554.464C554.951 34.5709 557.741 43.1018 562.84 59.9781L575.95 103.745H576.679L597.436 34.3854H629.849C610.425 91.2581 599.745 122.043 597.801 126.743C596.041 129.214 591.671 132.057 584.691 135.271C583.961 135.891 583.598 136.634 583.598 137.496C588.455 140.959 590.881 143.926 590.881 146.397H590.517L590.881 147.14C590.881 147.39 590.759 147.514 590.517 147.514L590.881 150.107V230.223H561.747V150.481C561.747 146.275 557.135 142.072 547.909 137.87C546.939 137.003 546.452 136.387 546.452 136.013C546.452 135.52 548.395 133.666 552.278 130.452C553.007 128.657 553.371 127.545 553.371 127.112V126.001C553.371 124.022 549.608 112.276 542.082 90.7635L522.78 34.3854ZM678.464 34.3854H634.399V122.292C634.399 126.432 633.065 129.769 630.39 132.304C626.145 135.212 623.835 137.187 623.474 138.238C623.474 138.795 623.961 139.413 624.931 140.095C631.244 143.063 634.399 146.647 634.399 150.849V230.223H689.39C694.974 230.223 701.529 228.247 709.055 224.288C724.351 214.215 731.999 199.128 731.999 179.037V177.555L732.363 175.329C732.363 168.715 731.393 162.038 729.45 155.299C729.45 150.911 726.655 146.831 721.074 143.063C713.545 139.908 709.784 137.436 709.784 135.645C710.757 134.529 711.24 133.42 711.24 132.304V131.936C711.24 130.635 710.029 129.152 707.598 127.485C708.633 127.423 710.451 126.556 713.061 124.885C723.258 116.726 728.357 105.353 728.357 90.7635V85.5707C728.357 70.3018 723.5 57.5672 713.789 47.3672C703.348 38.7127 691.575 34.3854 678.464 34.3854ZM665.718 114.131V64.429H677.007C678.587 64.429 680.163 64.5527 681.742 64.8C692.181 67.3963 697.402 74.9381 697.402 87.4252V90.3926C697.402 93.1127 697.28 94.4728 697.037 94.4728C695.215 107.577 689.27 114.131 679.193 114.131H665.718ZM665.718 149.365C665.718 147.327 664.745 145.102 662.806 142.689H673.365C678.161 142.689 682.289 143.309 685.748 144.547C695.217 147.635 699.951 156.041 699.951 169.769V175.329C699.951 177.804 699.586 180.521 698.858 183.489C694.974 195.112 688.297 200.924 678.829 200.924H665.718V149.365ZM741.469 34.3854H824.502V64.058H770.969V117.469H809.935V124.144C809.935 128.285 806.535 132.119 799.737 135.645L799.374 137.496C805.142 141.516 808.417 144.73 809.206 147.14H770.603L770.969 151.592V200.55H824.502V230.223H741.469V149.365C741.469 145.348 738.07 141.762 731.273 138.612L730.909 136.754C737.95 131.811 741.469 127.731 741.469 124.516V34.3854ZM876.213 34.3854H834.332C833.909 34.3854 833.665 34.6327 833.604 35.1273V123.034C833.604 126.06 832.633 128.657 830.69 130.819L823.043 137.496V138.612L824.135 139.721C830.449 142.505 833.604 146.339 833.604 151.223V230.223H862.738V156.784H882.04L899.52 230.223H931.203L926.469 212.419C916.272 170.51 910.809 149.118 910.081 148.256C908.382 145.842 907.531 144.235 907.531 143.431C906.075 139.908 905.347 138.055 905.347 137.87V136.754L916.272 131.561C922.098 128.718 925.013 122.043 925.013 111.534V79.2653C925.013 64.5527 920.641 53.0545 911.902 44.7709C904.802 37.8474 892.907 34.3854 876.213 34.3854ZM862.738 122.66V64.8H880.219C882.403 64.8 884.469 65.0471 886.409 65.5417C893.209 67.6434 896.606 72.4651 896.606 80.0071V111.534C896.606 112.399 896.487 113.512 896.243 114.872C893.087 123.034 887.866 127.112 880.583 127.112H862.01C862.497 125.381 862.738 123.898 862.738 122.66Z" fill="url(#paint1_linear_19_465)"/>
<path fill-rule="evenodd" clip-rule="evenodd" d="M980.124 31.9746H985.959C1000.16 31.9746 1011.69 37.909 1020.56 49.7781C1024.73 54.6 1027.77 63.2545 1029.65 75.7416V82.0471H1001.61C999.673 66.469 994.209 58.6799 985.228 58.6799H982.676C974.543 58.6799 969.689 65.109 968.111 77.967V80.1926C968.111 94.1627 977.825 108.753 997.248 123.959C999.916 126.743 1001.25 128.844 1001.25 130.266V131.006C1000.28 133.727 999.79 135.212 999.79 135.458V135.829C999.975 136.817 1004.22 139.291 1012.54 143.247C1018.79 146.647 1023.65 153.57 1027.11 164.018C1029.78 170.136 1031.11 176.444 1031.11 182.934C1031.11 200.304 1024.92 214.152 1012.54 224.475C1004.84 229.915 995.485 232.635 984.497 232.635C962.709 232.635 947.656 221.634 939.341 199.625C936.608 190.598 935.151 182.317 934.97 174.774H962.648C964.407 186.767 966.956 194.433 970.295 197.77C973.634 202.716 977.884 205.189 983.046 205.189C991.053 205.189 996.877 200.613 1000.52 191.465C1001.25 188.868 1001.61 185.901 1001.61 182.563C1001.61 170.386 992.747 157.774 975.03 144.73C972.178 143.063 966.108 140.341 956.821 136.57C956.821 136.2 956.456 135.829 955.728 135.458C957.186 132.554 957.913 130.819 957.913 130.266V128.781C957.671 126.743 954.03 121.426 946.989 112.833C941.161 102.633 938.248 92.6179 938.248 82.7889V77.967C938.248 58.8037 946.502 44.7091 963.012 35.6837C969.142 33.2111 974.845 31.9746 980.124 31.9746ZM1123.25 34.3854H1040.22V124.516C1040.22 127.731 1036.7 131.811 1029.65 136.754L1030.02 138.612C1036.81 141.762 1040.22 145.348 1040.22 149.365V230.223H1123.25V200.55H1069.72V151.592L1069.35 147.14H1107.96C1107.17 144.73 1103.88 141.516 1098.12 137.496L1098.49 135.645C1105.29 132.119 1108.69 128.285 1108.69 124.144V117.469H1069.72V64.058H1123.25V34.3854ZM1178.24 31.9746C1196.39 31.9746 1210.23 40.7527 1219.75 58.309C1222.91 64.058 1224.49 71.7234 1224.49 81.3052V101.334H1194.26V79.8216C1194.26 71.4145 1190.75 65.7272 1183.71 62.7599C1182.55 62.018 1180.72 61.6472 1178.24 61.6472H1176.42C1169.44 61.6472 1164.46 65.9743 1161.49 74.6289C1161.24 75.9271 1161.13 77.1635 1161.13 78.338V122.105C1161.13 127.298 1157.73 131.503 1150.93 134.715L1150.2 135.829V136.57C1150.86 137.374 1153.54 139.355 1158.22 142.505C1160.15 144.856 1161.13 147.451 1161.13 150.294V186.273C1161.13 193.319 1165.13 198.512 1173.15 201.85C1174.47 202.096 1175.57 202.221 1176.42 202.221H1178.6C1184.74 202.221 1189.47 198.882 1192.8 192.207C1193.78 190.165 1194.26 187.818 1194.26 185.158V158.454H1224.49V183.675C1224.49 196.533 1221.22 206.917 1214.66 214.833C1204.89 226.701 1192.87 232.635 1178.6 232.635H1178.24C1160.09 232.635 1146.25 223.734 1136.73 205.931C1133.82 200.366 1132.35 193.074 1132.35 184.046V150.294C1132.35 145.968 1129.07 142.381 1122.52 139.538C1122.52 139.167 1122.16 138.795 1121.43 138.425C1121.43 137.558 1124.1 134.962 1129.44 130.635C1131.38 128.535 1132.35 125.69 1132.35 122.105V80.9344C1132.35 57.8143 1143.4 42.1129 1165.49 33.8291C1169.56 32.8402 1173.81 32.2217 1178.24 31.9746ZM1274.38 34.3854H1245.24V121.917C1245.24 127.423 1241.61 131.873 1234.32 135.271V137.496C1241.61 140.896 1245.24 145.348 1245.24 150.849V230.223H1274.38V150.481C1274.38 145.289 1270.74 140.959 1263.45 137.496V136.013L1264.19 134.903C1270.98 131.561 1274.38 127.731 1274.38 123.402V34.3854ZM1292.22 34.3854H1375.26V64.058H1321.72V117.469H1360.69V124.144C1360.69 128.285 1357.3 132.119 1350.5 135.645L1350.14 137.496C1355.89 141.516 1359.18 144.73 1359.97 147.14H1321.36L1321.72 151.592V230.223H1292.22V149.365C1292.22 145.348 1288.82 141.762 1282.03 138.612L1281.67 136.754C1288.71 131.811 1292.22 127.731 1292.22 124.516V34.3854ZM1416.05 34.3854H1384.36L1403.67 90.7635C1411.2 112.276 1414.96 124.022 1414.96 126.001V127.112C1414.96 127.545 1414.59 128.657 1413.86 130.452C1409.98 133.666 1408.04 135.52 1408.04 136.013C1408.04 136.387 1408.52 137.003 1409.49 137.87C1418.73 142.072 1423.33 146.275 1423.33 150.481V230.223H1452.47V150.107L1452.1 147.514C1452.34 147.514 1452.47 147.39 1452.47 147.14L1452.1 146.397H1452.47C1452.47 143.926 1450.03 140.959 1445.18 137.496C1445.18 136.634 1445.54 135.891 1446.27 135.271C1453.26 132.057 1457.63 129.214 1459.38 126.743C1461.32 122.043 1472.02 91.2581 1491.43 34.3854H1459.02L1438.27 103.745H1437.54L1424.43 59.9781C1419.33 43.1018 1416.54 34.5709 1416.05 34.3854Z" fill="url(#paint2_linear_19_465)"/>
<path d="M430.918 339.568C427.066 339.568 423.6 338.895 420.518 337.548C417.437 336.146 415.015 334.183 413.255 331.658C411.494 329.132 410.613 326.187 410.613 322.821H420.684C420.904 325.346 421.866 327.422 423.571 329.048C425.333 330.676 427.782 331.49 430.918 331.49C434.164 331.49 436.696 330.705 438.512 329.132C440.328 327.506 441.235 325.429 441.235 322.906C441.235 320.942 440.658 319.342 439.503 318.107C438.402 316.873 436.998 315.919 435.292 315.246C433.642 314.573 431.331 313.844 428.36 313.059C424.618 312.048 421.564 311.038 419.198 310.028C416.887 308.962 414.905 307.335 413.255 305.147C411.604 302.959 410.779 300.042 410.779 296.394C410.779 293.027 411.604 290.083 413.255 287.557C414.905 285.032 417.217 283.097 420.188 281.75C423.159 280.404 426.599 279.731 430.506 279.731C436.063 279.731 440.602 281.161 444.123 284.023C447.701 286.827 449.682 290.7 450.067 295.636H439.667C439.503 293.505 438.512 291.681 436.696 290.167C434.879 288.651 432.486 287.894 429.515 287.894C426.819 287.894 424.618 288.594 422.911 289.998C421.206 291.401 420.353 293.421 420.353 296.058C420.353 297.853 420.875 299.341 421.921 300.518C423.021 301.64 424.397 302.538 426.048 303.212C427.699 303.885 429.955 304.614 432.816 305.399C436.614 306.466 439.695 307.531 442.06 308.597C444.482 309.665 446.519 311.319 448.169 313.563C449.875 315.751 450.727 318.697 450.727 322.4C450.727 325.374 449.93 328.179 448.334 330.817C446.793 333.453 444.509 335.586 441.483 337.212C438.512 338.783 434.989 339.568 430.918 339.568ZM504.338 314.657C504.338 316.396 504.228 317.967 504.008 319.37H469.258C469.533 323.073 470.883 326.047 473.303 328.291C475.724 330.536 478.696 331.658 482.218 331.658C487.28 331.658 490.857 329.497 492.947 325.177H503.1C501.724 329.441 499.22 332.948 495.588 335.698C492.012 338.39 487.554 339.737 482.218 339.737C477.87 339.737 473.964 338.754 470.497 336.791C467.085 334.772 464.389 331.967 462.408 328.375C460.482 324.728 459.519 320.521 459.519 315.751C459.519 310.983 460.455 306.802 462.326 303.212C464.252 299.565 466.92 296.758 470.333 294.795C473.798 292.831 477.759 291.85 482.218 291.85C486.509 291.85 490.334 292.803 493.691 294.711C497.046 296.619 499.659 299.312 501.532 302.79C503.403 306.213 504.338 310.169 504.338 314.657ZM494.516 311.627C494.461 308.092 493.223 305.259 490.802 303.127C488.38 300.995 485.381 299.93 481.805 299.93C478.557 299.93 475.779 300.995 473.468 303.127C471.158 305.203 469.781 308.036 469.341 311.627H494.516ZM511.287 315.751C511.287 310.983 512.222 306.802 514.093 303.212C516.018 299.565 518.66 296.758 522.017 294.795C525.373 292.831 529.224 291.85 533.572 291.85C539.074 291.85 543.614 293.196 547.191 295.889C550.822 298.526 553.272 302.313 554.537 307.251H544.385C543.56 304.95 542.239 303.155 540.422 301.865C538.607 300.575 536.323 299.93 533.572 299.93C529.72 299.93 526.639 301.332 524.328 304.137C522.072 306.886 520.943 310.758 520.943 315.751C520.943 320.746 522.072 324.644 524.328 327.449C526.639 330.256 529.72 331.658 533.572 331.658C539.019 331.658 542.624 329.217 544.385 324.336H554.537C553.216 329.048 550.739 332.808 547.108 335.613C543.477 338.362 538.964 339.737 533.572 339.737C529.224 339.737 525.373 338.754 522.017 336.791C518.66 334.772 516.018 331.967 514.093 328.375C512.222 324.728 511.287 320.521 511.287 315.751ZM605.926 292.607V338.979H596.517V333.509C595.031 335.417 593.078 336.932 590.656 338.054C588.29 339.119 585.759 339.652 583.063 339.652C579.486 339.652 576.268 338.895 573.406 337.381C570.599 335.866 568.371 333.622 566.72 330.648C565.125 327.673 564.327 324.083 564.327 319.875V292.607H573.653V318.444C573.653 322.596 574.671 325.794 576.707 328.038C578.743 330.227 581.522 331.321 585.044 331.321C588.566 331.321 591.344 330.227 593.38 328.038C595.472 325.794 596.517 322.596 596.517 318.444V292.607H605.926ZM628.577 299.341C629.952 296.983 631.768 295.16 634.023 293.869C636.334 292.523 639.058 291.85 642.195 291.85V301.781H639.801C636.114 301.781 633.308 302.735 631.382 304.642C629.512 306.549 628.577 309.861 628.577 314.573V338.979H619.167V292.607H628.577V299.341ZM693.352 314.657C693.352 316.396 693.242 317.967 693.022 319.37H658.273C658.548 323.073 659.896 326.047 662.316 328.291C664.738 330.536 667.709 331.658 671.23 331.658C676.293 331.658 679.87 329.497 681.96 325.177H692.112C690.737 329.441 688.234 332.948 684.603 335.698C681.025 338.39 676.569 339.737 671.23 339.737C666.884 339.737 662.977 338.754 659.51 336.791C656.099 334.772 653.403 331.967 651.422 328.375C649.496 324.728 648.533 320.521 648.533 315.751C648.533 310.983 649.468 306.802 651.339 303.212C653.265 299.565 655.934 296.758 659.345 294.795C662.813 292.831 666.774 291.85 671.23 291.85C675.523 291.85 679.347 292.803 682.704 294.711C686.061 296.619 688.674 299.312 690.545 302.79C692.415 306.213 693.352 310.169 693.352 314.657ZM683.53 311.627C683.475 308.092 682.236 305.259 679.814 303.127C677.394 300.995 674.395 299.93 670.818 299.93C667.572 299.93 664.793 300.995 662.483 303.127C660.17 305.203 658.795 308.036 658.355 311.627H683.53ZM768.21 280.488L749.226 317.771V338.979H739.817V317.771L720.751 280.488H731.233L744.521 309.187L757.811 280.488H768.21ZM796.23 339.737C791.937 339.737 788.058 338.754 784.592 336.791C781.125 334.772 778.401 331.967 776.42 328.375C774.44 324.728 773.45 320.521 773.45 315.751C773.45 311.038 774.467 306.858 776.503 303.212C778.539 299.565 781.317 296.758 784.84 294.795C788.361 292.831 792.295 291.85 796.642 291.85C800.989 291.85 804.924 292.831 808.445 294.795C811.966 296.758 814.746 299.565 816.782 303.212C818.818 306.858 819.836 311.038 819.836 315.751C819.836 320.465 818.79 324.644 816.699 328.291C814.609 331.939 811.746 334.772 808.115 336.791C804.538 338.754 800.576 339.737 796.23 339.737ZM796.23 331.406C798.65 331.406 800.906 330.817 802.998 329.637C805.144 328.459 806.877 326.692 808.198 324.336C809.518 321.98 810.178 319.117 810.178 315.751C810.178 312.386 809.546 309.552 808.281 307.251C807.014 304.895 805.337 303.127 803.246 301.949C801.154 300.771 798.898 300.182 796.477 300.182C794.057 300.182 791.799 300.771 789.709 301.949C787.673 303.127 786.05 304.895 784.84 307.251C783.629 309.552 783.024 312.386 783.024 315.751C783.024 320.746 784.262 324.616 786.738 327.365C789.269 330.058 792.432 331.406 796.23 331.406ZM871.149 292.607V338.979H861.74V333.509C860.255 335.417 858.301 336.932 855.88 338.054C853.513 339.119 850.982 339.652 848.287 339.652C844.71 339.652 841.49 338.895 838.629 337.381C835.823 335.866 833.594 333.622 831.944 330.648C830.348 327.673 829.55 324.083 829.55 319.875V292.607H838.877V318.444C838.877 322.596 839.895 325.794 841.93 328.038C843.966 330.227 846.746 331.321 850.267 331.321C853.788 331.321 856.568 330.227 858.604 328.038C860.695 325.794 861.74 322.596 861.74 318.444V292.607H871.149ZM893.799 299.341C895.174 296.983 896.991 295.16 899.248 293.869C901.558 292.523 904.282 291.85 907.418 291.85V301.781H905.025C901.338 301.781 898.531 302.735 896.605 304.642C894.735 306.549 893.799 309.861 893.799 314.573V338.979H884.39V292.607H893.799V299.341ZM957.896 280.488C964.003 280.488 969.341 281.695 973.908 284.107C978.527 286.463 982.082 289.886 984.556 294.375C987.089 298.806 988.355 303.997 988.355 309.945C988.355 315.891 987.089 321.054 984.556 325.429C982.082 329.805 978.527 333.173 973.908 335.529C969.341 337.829 964.003 338.979 957.896 338.979H939.16V280.488H957.896ZM957.896 331.153C964.608 331.153 969.754 329.301 973.329 325.598C976.91 321.896 978.692 316.676 978.692 309.945C978.692 303.155 976.91 297.853 973.329 294.037C969.754 290.223 964.608 288.314 957.896 288.314H948.569V331.153H957.896ZM1003.29 286.463C1001.58 286.463 1000.15 285.874 999.001 284.696C997.842 283.517 997.267 282.059 997.267 280.32C997.267 278.581 997.842 277.121 999.001 275.943C1000.15 274.765 1001.58 274.176 1003.29 274.176C1004.94 274.176 1006.34 274.765 1007.5 275.943C1008.65 277.121 1009.24 278.581 1009.24 280.32C1009.24 282.059 1008.65 283.517 1007.5 284.696C1006.34 285.874 1004.94 286.463 1003.29 286.463ZM1007.91 292.607V338.979H998.504V292.607H1007.91ZM1039.41 291.85C1042.94 291.85 1046.05 292.579 1048.74 294.037C1051.49 295.44 1053.64 297.207 1055.18 299.341V292.607H1064.67V339.737C1064.67 344.001 1063.79 347.788 1062.03 351.1C1060.27 354.466 1057.72 357.102 1054.35 359.01C1051.05 360.917 1047.09 361.871 1042.47 361.871C1036.31 361.871 1031.19 360.384 1027.12 357.411C1023.04 354.494 1020.73 350.509 1020.19 345.46H1029.51C1030.23 347.872 1031.74 349.808 1034.05 351.267C1036.41 352.783 1039.22 353.54 1042.47 353.54C1046.27 353.54 1049.32 352.361 1051.63 350.004C1053.99 347.648 1055.18 344.226 1055.18 339.737V331.994C1053.59 334.183 1051.41 336.034 1048.66 337.548C1045.97 339.007 1042.88 339.737 1039.41 339.737C1035.46 339.737 1031.83 338.727 1028.52 336.707C1025.27 334.631 1022.69 331.77 1020.76 328.122C1018.89 324.42 1017.96 320.24 1017.96 315.583C1017.96 310.926 1018.89 306.802 1020.76 303.212C1022.69 299.621 1025.27 296.843 1028.52 294.879C1031.83 292.86 1035.46 291.85 1039.41 291.85ZM1055.18 315.751C1055.18 312.553 1054.52 309.777 1053.2 307.419C1051.93 305.063 1050.25 303.267 1048.16 302.033C1046.08 300.799 1043.82 300.182 1041.4 300.182C1038.97 300.182 1036.72 300.799 1034.63 302.033C1032.54 303.211 1030.83 304.979 1029.51 307.335C1028.24 309.636 1027.61 312.385 1027.61 315.583C1027.61 318.781 1028.24 321.587 1029.51 323.999C1030.83 326.412 1032.54 328.263 1034.63 329.553C1036.77 330.788 1039.03 331.406 1041.4 331.406C1043.82 331.406 1046.08 330.788 1048.16 329.553C1050.25 328.319 1051.93 326.524 1053.2 324.167C1054.52 321.755 1055.18 318.948 1055.18 315.751ZM1082.64 286.463C1080.94 286.463 1079.5 285.874 1078.35 284.696C1077.2 283.517 1076.62 282.059 1076.62 280.32C1076.62 278.581 1077.2 277.121 1078.35 275.943C1079.5 274.765 1080.94 274.176 1082.64 274.176C1084.3 274.176 1085.7 274.765 1086.85 275.943C1088.01 277.121 1088.58 278.581 1088.58 280.32C1088.58 282.059 1088.01 283.517 1086.85 284.696C1085.7 285.874 1084.3 286.463 1082.64 286.463ZM1087.27 292.607V338.979H1077.86V292.607H1087.27ZM1111.42 300.434V326.103C1111.42 327.842 1111.8 329.105 1112.58 329.89C1113.4 330.621 1114.78 330.985 1116.7 330.985H1122.48V338.979H1115.06C1110.82 338.979 1107.58 337.969 1105.32 335.949C1103.06 333.93 1101.93 330.648 1101.93 326.103V300.434H1096.57V292.607H1101.93V281.077H1111.42V292.607H1122.48V300.434H1111.42ZM1128.85 315.583C1128.85 310.926 1129.78 306.802 1131.65 303.212C1133.57 299.621 1136.16 296.843 1139.41 294.879C1142.71 292.86 1146.34 291.85 1150.31 291.85C1153.88 291.85 1156.99 292.579 1159.63 294.037C1162.33 295.44 1164.47 297.207 1166.07 299.341V292.607H1175.56V338.979H1166.07V332.079C1164.47 334.266 1162.3 336.09 1159.55 337.548C1156.79 339.007 1153.66 339.737 1150.14 339.737C1146.23 339.737 1142.66 338.727 1139.41 336.707C1136.16 334.631 1133.57 331.77 1131.65 328.122C1129.78 324.42 1128.85 320.24 1128.85 315.583ZM1166.07 315.751C1166.07 312.553 1165.41 309.777 1164.09 307.419C1162.82 305.063 1161.15 303.267 1159.05 302.033C1156.96 300.799 1154.71 300.182 1152.28 300.182C1149.87 300.182 1147.61 300.799 1145.51 302.033C1143.43 303.211 1141.72 304.979 1140.4 307.335C1139.13 309.636 1138.5 312.385 1138.5 315.583C1138.5 318.781 1139.13 321.587 1140.4 323.999C1141.72 326.412 1143.43 328.263 1145.51 329.553C1147.67 330.788 1149.92 331.406 1152.28 331.406C1154.71 331.406 1156.96 330.788 1159.05 329.553C1161.15 328.319 1162.82 326.524 1164.09 324.167C1165.41 321.755 1166.07 318.948 1166.07 315.751ZM1198.15 276.701V338.979H1188.74V276.701H1198.15ZM1267.35 280.488V288.314H1243.01V305.568H1262V313.395H1243.01V338.979H1233.6V280.488H1267.35ZM1318.09 292.607V338.979H1308.68V333.509C1307.2 335.417 1305.23 336.932 1302.82 338.054C1300.45 339.119 1297.93 339.652 1295.22 339.652C1291.65 339.652 1288.43 338.895 1285.57 337.381C1282.76 335.866 1280.53 333.622 1278.89 330.648C1277.28 327.673 1276.49 324.083 1276.49 319.875V292.607H1285.81V318.444C1285.81 322.596 1286.85 325.794 1288.87 328.038C1290.91 330.227 1293.68 331.321 1297.21 331.321C1300.72 331.321 1303.51 330.227 1305.55 328.038C1307.64 325.794 1308.68 322.596 1308.68 318.444V292.607H1318.09ZM1342.31 300.434V326.103C1342.31 327.842 1342.7 329.105 1343.47 329.89C1344.29 330.621 1345.67 330.985 1347.59 330.985H1353.37V338.979H1345.94C1341.7 338.979 1338.45 337.969 1336.2 335.949C1333.94 333.93 1332.82 330.648 1332.82 326.103V300.434H1327.45V292.607H1332.82V281.077H1342.31V292.607H1353.37V300.434H1342.31ZM1404.06 292.607V338.979H1394.64V333.509C1393.16 335.417 1391.21 336.932 1388.79 338.054C1386.41 339.119 1383.89 339.652 1381.19 339.652C1377.61 339.652 1374.39 338.895 1371.54 337.381C1368.72 335.866 1366.5 333.622 1364.84 330.648C1363.25 327.673 1362.46 324.083 1362.46 319.875V292.607H1371.79V318.444C1371.79 322.596 1372.8 325.794 1374.84 328.038C1376.86 330.227 1379.64 331.321 1383.18 331.321C1386.69 331.321 1389.48 330.227 1391.51 328.038C1393.6 325.794 1394.64 322.596 1394.64 318.444V292.607H1404.06ZM1426.7 299.341C1428.07 296.983 1429.89 295.16 1432.15 293.869C1434.46 292.523 1437.19 291.85 1440.32 291.85V301.781H1437.93C1434.24 301.781 1431.43 302.735 1429.51 304.642C1427.64 306.549 1426.7 309.861 1426.7 314.573V338.979H1417.3V292.607H1426.7V299.341ZM1491.48 314.657C1491.48 316.396 1491.37 317.967 1491.16 319.37H1456.39C1456.67 323.073 1458.02 326.047 1460.44 328.291C1462.87 330.536 1465.83 331.658 1469.36 331.658C1474.42 331.658 1478 329.497 1480.09 325.177H1490.24C1488.87 329.441 1486.35 332.948 1482.73 335.698C1479.16 338.39 1474.7 339.737 1469.36 339.737C1465 339.737 1461.11 338.754 1457.64 336.791C1454.23 334.772 1451.52 331.967 1449.56 328.375C1447.63 324.728 1446.66 320.521 1446.66 315.751C1446.66 310.983 1447.59 306.802 1449.47 303.212C1451.4 299.565 1454.07 296.758 1457.47 294.795C1460.94 292.831 1464.9 291.85 1469.36 291.85C1473.65 291.85 1477.47 292.803 1480.83 294.711C1484.19 296.619 1486.8 299.312 1488.68 302.79C1490.54 306.213 1491.48 310.169 1491.48 314.657ZM1481.66 311.627C1481.6 308.092 1480.36 305.259 1477.94 303.127C1475.52 300.995 1472.52 299.93 1468.94 299.93C1465.71 299.93 1462.91 300.995 1460.6 303.127C1458.29 305.203 1456.92 308.036 1456.48 311.627H1481.66Z" fill="white"/>
</g>
<defs>
<linearGradient id="paint0_linear_19_465" x1="296.199" y1="24.2607" x2="124.795" y2="377.075" gradientUnits="userSpaceOnUse">
<stop stop-color="white"/>
<stop offset="0.329764" stop-color="#3DC866"/>
<stop offset="1" stop-color="#050A06"/>
</linearGradient>
<linearGradient id="paint1_linear_19_465" x1="901.524" y1="-11.0507" x2="901.524" y2="233.749" gradientUnits="userSpaceOnUse">
<stop stop-color="#F6FDF8"/>
<stop offset="0.554528" stop-color="#26A14A"/>
</linearGradient>
<linearGradient id="paint2_linear_19_465" x1="854.487" y1="-11.0507" x2="854.487" y2="233.749" gradientUnits="userSpaceOnUse">
<stop stop-color="#F6FDF8"/>
<stop offset="0.554528" stop-color="#26A14A"/>
</linearGradient>
<clipPath id="clip0_19_465">
<rect width="1500" height="400" fill="white"/>
</clipPath>
</defs>
</svg>
